# xmcd
#
# Track frame offsets:
#	150
#	22901
#	45885
#	72513
#	98820
#	115182
#	134195
#	159769
#	181885
#
# Disc length: 2679 seconds
#
# Revision: 63
# Processed by: cddbd v1.5.2PL0 Copyright (c) Steve Scherf et al.
# Submitted via: Jack! The Knife 20 Magnifico
#
DISCID=6d0a7509
DTITLE=AC-DC - High Voltage
DYEAR=1976
DGENRE=Hard Rock
TTITLE0=It's A Long Way To The Top (If You Wanna Rock 'N' Roll)
TTITLE1=Rock 'N' Roll Singer
TTITLE2=The Jack
TTITLE3=Live Wire
TTITLE4=T.N.T.
TTITLE5=Can I Sit Next To You Girl
TTITLE6=Little Lover
TTITLE7=She's Got Balls
TTITLE8=High Voltage
EXTD=Harry Vanda and George Young
EXTT0=Young, Scott, Young
EXTT1=Young, Scott, Young
EXTT2=Young, Scott, Young
EXTT3=Young, Scott, Young
EXTT4=Young, Scott, Young
EXTT5=Young, Young
EXTT6=Young, Scott, Young
EXTT7=Young, Scott, Young
EXTT8=Young, Scott, Young
PLAYORDER=
